<?xml version="1.0" encoding="UTF-8" standalone="no"?>
<!DOCTYPE svg PUBLIC "-//W3C//DTD SVG 1.1//EN"
 "http://www.w3.org/Graphics/SVG/1.1/DTD/svg11.dtd">
<!-- Generated by graphviz version 2.40.1 (20161225.0304)
 -->
<!-- Title: dependencies Pages: 1 -->
<svg width="504pt" height="284pt"
 viewBox="0.00 0.00 504.00 284.00" xmlns="http://www.w3.org/2000/svg" xmlns:xlink="http://www.w3.org/1999/xlink">
<g id="graph0" class="graph" transform="scale(1 1) rotate(0) translate(4 280)">
<title>dependencies</title>
<polygon fill="#ffffff" stroke="transparent" points="-4,4 -4,-280 500,-280 500,4 -4,4"/>
<text text-anchor="start" x="227.0091" y="-42.4" font-family="sans-serif" font-weight="bold" font-size="14.00" fill="#000000">Legend</text>
<polygon fill="#ffffb3" stroke="transparent" points="14,-10 14,-30 34,-30 34,-10 14,-10"/>
<text text-anchor="start" x="37.629" y="-15.4" font-family="sans-serif" font-size="14.00" fill="#000000"> &#160;Declarations</text>
<polygon fill="#8dd3c7" stroke="transparent" points="127,-10 127,-30 147,-30 147,-10 127,-10"/>
<text text-anchor="start" x="150.7251" y="-15.4" font-family="sans-serif" font-size="14.00" fill="#000000"> &#160;Module</text>
<polygon fill="#80b1d3" stroke="transparent" points="213,-10 213,-30 233,-30 233,-10 213,-10"/>
<text text-anchor="start" x="236.7812" y="-15.4" font-family="sans-serif" font-size="14.00" fill="#000000"> &#160;Bootstrap</text>
<polygon fill="#fdb462" stroke="transparent" points="310,-10 310,-30 330,-30 330,-10 310,-10"/>
<text text-anchor="start" x="333.6732" y="-15.4" font-family="sans-serif" font-size="14.00" fill="#000000"> &#160;Providers</text>
<polygon fill="#fb8072" stroke="transparent" points="406,-10 406,-30 426,-30 426,-10 406,-10"/>
<text text-anchor="start" x="429.7258" y="-15.4" font-family="sans-serif" font-size="14.00" fill="#000000"> &#160;Exports</text>
<g id="clust1" class="cluster">
<title>cluster_AppModule</title>
<polygon fill="none" stroke="#000000" stroke-dasharray="1,5" points="79,-70 79,-268 219,-268 219,-70 79,-70"/>
</g>
<g id="clust2" class="cluster">
<title>cluster_AppModule_declarations</title>
<polygon fill="none" stroke="#000000" points="88,-78 88,-130 210,-130 210,-78 88,-78"/>
</g>
<g id="clust6" class="cluster">
<title>cluster_AppModule_bootstrap</title>
<polygon fill="none" stroke="#000000" points="87,-208 87,-260 211,-260 211,-208 87,-208"/>
</g>
<g id="clust8" class="cluster">
<title>cluster_NgSwitcheryModule</title>
<polygon fill="none" stroke="#000000" stroke-dasharray="1,5" points="227,-70 227,-268 417,-268 417,-70 227,-70"/>
</g>
<g id="clust9" class="cluster">
<title>cluster_NgSwitcheryModule_declarations</title>
<polygon fill="none" stroke="#000000" points="236,-78 236,-130 408,-130 408,-78 236,-78"/>
</g>
<g id="clust12" class="cluster">
<title>cluster_NgSwitcheryModule_exports</title>
<polygon fill="none" stroke="#000000" points="235,-208 235,-260 409,-260 409,-208 235,-208"/>
</g>
<!-- AppComponent -->
<g id="node1" class="node">
<title>AppComponent</title>
<polygon fill="#ffffb3" stroke="#000000" points="201.9399,-122 96.0601,-122 96.0601,-86 201.9399,-86 201.9399,-122"/>
<text text-anchor="middle" x="149" y="-99.8" font-family="Times,serif" font-size="14.00" fill="#000000">AppComponent</text>
</g>
<!-- AppModule -->
<g id="node2" class="node">
<title>AppModule</title>
<polygon fill="#8dd3c7" stroke="#000000" points="190.6571,-187 187.6571,-191 166.6571,-191 163.6571,-187 107.3429,-187 107.3429,-151 190.6571,-151 190.6571,-187"/>
<text text-anchor="middle" x="149" y="-164.8" font-family="Times,serif" font-size="14.00" fill="#000000">AppModule</text>
</g>
<!-- AppComponent&#45;&gt;AppModule -->
<g id="edge1" class="edge">
<title>AppComponent&#45;&gt;AppModule</title>
<path fill="none" stroke="#000000" d="M149,-122.1061C149,-122.1061 149,-140.991 149,-140.991"/>
<polygon fill="#000000" stroke="#000000" points="145.5001,-140.9909 149,-150.991 152.5001,-140.991 145.5001,-140.9909"/>
</g>
<!-- AppComponent  -->
<g id="node3" class="node">
<title>AppComponent </title>
<polygon fill="#80b1d3" stroke="#000000" points="203.439,-252 94.561,-252 94.561,-216 203.439,-216 203.439,-252"/>
<text text-anchor="middle" x="149" y="-229.8" font-family="Times,serif" font-size="14.00" fill="#000000">AppComponent </text>
</g>
<!-- AppModule&#45;&gt;AppComponent  -->
<g id="edge2" class="edge">
<title>AppModule&#45;&gt;AppComponent </title>
<path fill="none" stroke="#000000" stroke-dasharray="1,5" d="M149,-187.1061C149,-187.1061 149,-205.991 149,-205.991"/>
<polygon fill="#000000" stroke="#000000" points="145.5001,-205.9909 149,-215.991 152.5001,-205.991 145.5001,-205.9909"/>
</g>
<!-- NgSwitcheryComponent -->
<g id="node4" class="node">
<title>NgSwitcheryComponent</title>
<polygon fill="#ffffb3" stroke="#000000" points="399.6993,-122 244.3007,-122 244.3007,-86 399.6993,-86 399.6993,-122"/>
<text text-anchor="middle" x="322" y="-99.8" font-family="Times,serif" font-size="14.00" fill="#000000">NgSwitcheryComponent</text>
</g>
<!-- NgSwitcheryModule -->
<g id="node5" class="node">
<title>NgSwitcheryModule</title>
<polygon fill="#8dd3c7" stroke="#000000" points="388.9173,-187 385.9173,-191 364.9173,-191 361.9173,-187 255.0827,-187 255.0827,-151 388.9173,-151 388.9173,-187"/>
<text text-anchor="middle" x="322" y="-164.8" font-family="Times,serif" font-size="14.00" fill="#000000">NgSwitcheryModule</text>
</g>
<!-- NgSwitcheryComponent&#45;&gt;NgSwitcheryModule -->
<g id="edge3" class="edge">
<title>NgSwitcheryComponent&#45;&gt;NgSwitcheryModule</title>
<path fill="none" stroke="#000000" d="M322,-122.1061C322,-122.1061 322,-140.991 322,-140.991"/>
<polygon fill="#000000" stroke="#000000" points="318.5001,-140.9909 322,-150.991 325.5001,-140.991 318.5001,-140.9909"/>
</g>
<!-- NgSwitcheryComponent  -->
<g id="node6" class="node">
<title>NgSwitcheryComponent </title>
<polygon fill="#fb8072" stroke="#000000" points="401.1995,-252 242.8005,-252 242.8005,-216 401.1995,-216 401.1995,-252"/>
<text text-anchor="middle" x="322" y="-229.8" font-family="Times,serif" font-size="14.00" fill="#000000">NgSwitcheryComponent </text>
</g>
<!-- NgSwitcheryModule&#45;&gt;NgSwitcheryComponent  -->
<g id="edge4" class="edge">
<title>NgSwitcheryModule&#45;&gt;NgSwitcheryComponent </title>
<path fill="none" stroke="#000000" stroke-dasharray="5,2" d="M322,-187.1061C322,-187.1061 322,-205.991 322,-205.991"/>
<polygon fill="#000000" stroke="#000000" points="318.5001,-205.9909 322,-215.991 325.5001,-205.991 318.5001,-205.9909"/>
</g>
</g>
</svg>
